<?xml version="1.0" encoding="UTF-8"?>
<svg id="Layer_2" data-name="Layer 2" xmlns="http://www.w3.org/2000/svg" version="1.1" viewBox="0 0 31.9 32">
  <defs>
    <style>
      .cls-1 {
        fill: #284627;
        stroke-width: 0px;
      }
    </style>
  </defs>
  <path class="cls-1" d="M16.4,16.7c2.4,0,3.4,1.3,3.8,2.6h3c-.4-2.7-2.8-4.9-6.7-4.9s-7.6,3.6-7.6,8.3,2.5,8,7.1,8,3.9-.8,4.7-2c0,.7.1,1.3.3,1.8h2.2v-8.7h-6.7v2.4h3.8v.2c0,1.8-.7,4-3.8,4s-4.5-2.8-4.5-5.7,1.1-5.8,4.5-5.8Z"/>
  <g>
    <path class="cls-1" d="M14.5,13.1c2.7-.1,5.3-1.7,6.6-4.3,1.4-2.8.9-6.1-.9-8.4,0,0-.3.6-2.2,1.5-1.9.8-7.9,2.8-4.3,10.9,4.7-4,5.3-7.3,5.3-8.1,0,0,0-.1,0-.2,0,0,0,0,0,.2-.1,3.5-2.8,6.7-4.5,8.4h0Z"/>
    <path class="cls-1" d="M26.8,8.9s-.3.2-1.3.2c-1,0-4.2-.4-4.3,4,2.9-.8,3.9-2.1,4.2-2.5-.8,1.6-2.7,2.4-3.9,2.8,1.3.5,2.8.4,3.9-.5,1.2-1,1.7-2.6,1.4-4h0ZM25.4,10.6s0,0,0,0c0,0,0,0,0,0Z"/>
    <path class="cls-1" d="M10.5,13.4c-1.1-3.4-2.8-4.5-3.3-4.8,1.9.9,3.1,3,3.7,4.4.5-1.6.2-3.4-1-4.7-1.3-1.4-3.2-1.9-4.9-1.4,0,0,.3.3.3,1.5,0,1.2-.2,5.1,5.2,4.9h0ZM7.1,8.6s0,0-.1,0c0,0,0,0,.1,0Z"/>
  </g>
</svg>