<svg width="48" height="47" viewBox="0 0 48 47" fill="none" xmlns="http://www.w3.org/2000/svg">
<g filter="url(#filter0_d_167_1886)">
<circle cx="24.1512" cy="21.6512" r="19.2512" fill="#FBF5F5" stroke="white" stroke-width="0.8"/>
<g clip-path="url(#clip0_167_1886)">
<path d="M14.7646 26.0757L23.444 12.7833C24.0018 11.924 25.2822 11.924 25.8401 12.7833L34.5195 26.0757C35.1231 26.9976 34.4463 28.215 33.3214 28.215H15.9627C14.8378 28.215 14.161 26.9976 14.7646 26.0757Z" fill="#DD1010"/>
<path d="M23.6726 24.9479C23.6726 24.8226 23.7 24.6972 23.7458 24.5809C23.7915 24.4645 23.8647 24.366 23.947 24.2765C24.0384 24.196 24.139 24.1244 24.2579 24.0796C24.3768 24.0259 24.5049 24.008 24.6421 24.008C24.7792 24.008 24.8981 24.0349 25.017 24.0796C25.1359 24.1333 25.2365 24.196 25.328 24.2765C25.4103 24.3571 25.4835 24.4645 25.5292 24.5809C25.5749 24.6972 25.6024 24.8226 25.6024 24.9479C25.6024 25.0732 25.5749 25.2075 25.5292 25.3238C25.4743 25.4402 25.4103 25.5386 25.328 25.6192C25.2457 25.6998 25.1359 25.7714 25.017 25.8161C24.8981 25.8609 24.7701 25.8877 24.6421 25.8877C24.514 25.8877 24.3768 25.8609 24.2579 25.8161C24.139 25.7714 24.0384 25.6998 23.947 25.6192C23.8555 25.5386 23.7915 25.4402 23.7458 25.3238C23.7 25.2075 23.6726 25.0821 23.6726 24.9479ZM25.4103 16.7218V20.3201C25.4103 20.705 25.392 21.072 25.3554 21.439C25.3188 21.806 25.264 22.1909 25.1999 22.6027H24.1299C24.0659 22.1909 24.011 21.806 23.9744 21.439C23.9378 21.072 23.9195 20.6961 23.9195 20.3201V16.7218H25.4194H25.4103Z" fill="white"/>
</g>
</g>
<defs>
<filter id="filter0_d_167_1886" x="0.8" y="0.3" width="46.7025" height="46.7025" filterUnits="userSpaceOnUse" color-interpolation-filters="sRGB">
<feFlood flood-opacity="0" result="BackgroundImageFix"/>
<feColorMatrix in="SourceAlpha" type="matrix" values="0 0 0 0 0 0 0 0 0 0 0 0 0 0 0 0 0 0 127 0" result="hardAlpha"/>
<feMorphology radius="1" operator="dilate" in="SourceAlpha" result="effect1_dropShadow_167_1886"/>
<feOffset dy="2"/>
<feGaussianBlur stdDeviation="1.35"/>
<feComposite in2="hardAlpha" operator="out"/>
<feColorMatrix type="matrix" values="0 0 0 0 0.866667 0 0 0 0 0.0627451 0 0 0 0 0.0627451 0 0 0 0.21 0"/>
<feBlend mode="normal" in2="BackgroundImageFix" result="effect1_dropShadow_167_1886"/>
<feBlend mode="normal" in="SourceGraphic" in2="effect1_dropShadow_167_1886" result="shape"/>
</filter>
<clipPath id="clip0_167_1886">
<rect width="20.6328" height="16.7028" fill="white" transform="translate(14.3257 11.8256)"/>
</clipPath>
</defs>
</svg>
