<svg width="40" height="40" viewBox="0 0 40 40" fill="none" xmlns="http://www.w3.org/2000/svg">
<circle cx="19.6512" cy="19.6512" r="19.2512" fill="#FBF5F5" stroke="white" stroke-width="0.8"/>
<g clip-path="url(#clip0_174_594)">
<path d="M10.2646 24.0757L18.944 10.7833C19.5018 9.92397 20.7822 9.92397 21.3401 10.7833L30.0195 24.0757C30.6231 24.9976 29.9463 26.215 28.8214 26.215H11.4627C10.3378 26.215 9.66101 24.9976 10.2646 24.0757Z" fill="#DD1010"/>
<path d="M19.1726 22.9479C19.1726 22.8226 19.2 22.6972 19.2458 22.5809C19.2915 22.4645 19.3647 22.366 19.447 22.2765C19.5384 22.196 19.639 22.1244 19.7579 22.0796C19.8768 22.0259 20.0049 22.008 20.1421 22.008C20.2792 22.008 20.3981 22.0349 20.517 22.0796C20.6359 22.1333 20.7365 22.196 20.828 22.2765C20.9103 22.3571 20.9835 22.4645 21.0292 22.5809C21.0749 22.6972 21.1024 22.8226 21.1024 22.9479C21.1024 23.0732 21.0749 23.2075 21.0292 23.3238C20.9743 23.4402 20.9103 23.5386 20.828 23.6192C20.7457 23.6998 20.6359 23.7714 20.517 23.8161C20.3981 23.8609 20.2701 23.8877 20.1421 23.8877C20.014 23.8877 19.8768 23.8609 19.7579 23.8161C19.639 23.7714 19.5384 23.6998 19.447 23.6192C19.3555 23.5386 19.2915 23.4402 19.2458 23.3238C19.2 23.2075 19.1726 23.0821 19.1726 22.9479ZM20.9103 14.7218V18.3201C20.9103 18.705 20.892 19.072 20.8554 19.439C20.8188 19.806 20.764 20.1909 20.6999 20.6027H19.6299C19.5659 20.1909 19.511 19.806 19.4744 19.439C19.4378 19.072 19.4195 18.6961 19.4195 18.3201V14.7218H20.9194H20.9103Z" fill="white"/>
</g>
<defs>
<clipPath id="clip0_174_594">
<rect width="20.6328" height="16.7028" fill="white" transform="translate(9.82568 9.82556)"/>
</clipPath>
</defs>
</svg>
