<svg width="396" height="113" viewBox="0 0 396 113" fill="none" xmlns="http://www.w3.org/2000/svg">
<g clip-path="url(#clip0_54_606)">
<path d="M19.86 75.7199C26.16 75.7199 28.74 79.0199 29.82 82.4399H37.56C36.48 75.2399 30.3 69.4799 19.98 69.4799C7.08 69.4799 0 78.8999 0 91.3199C0 103.74 6.6 112.26 18.6 112.26C24.96 112.26 28.86 110.04 30.96 106.98C31.08 108.9 31.32 110.46 31.62 111.6H37.38V88.6799H19.8V95.0999H29.76V95.5199C29.76 100.32 28.02 105.96 19.8 105.96C11.58 105.96 8.04 98.6399 8.04 90.9599C8.04 83.2799 10.98 75.7199 19.86 75.7199Z" fill="#357A6D"/>
<path d="M70.2 90.4799C70.2 83.2799 65.82 80.0999 57.78 80.0399C48.6 79.9799 45.42 84.5999 45 89.6399H52.14C52.56 87.3599 53.4 85.4999 57.48 85.4999C62.1 85.4999 62.88 88.0199 62.88 90.4199V92.5199H58.2C49.14 92.5199 43.56 95.7599 43.56 102.72C43.56 107.46 46.68 112.32 54.06 112.32C59.7 112.32 61.92 110.1 63 108.24C63.06 109.38 63.24 110.94 63.48 111.6H70.62C70.44 110.82 70.2 106.92 70.2 104.04V90.4799ZM62.94 98.0999C62.94 102.66 62.16 106.86 56.04 106.86C52.74 106.86 51.06 104.82 51.06 102.3C51.06 98.8199 53.46 97.1999 58.92 97.1999H62.94V98.0999Z" fill="#357A6D"/>
<path d="M85.86 86.4599C85.86 84.3599 85.8 81.4799 85.68 80.7599H78.36C78.42 83.0399 78.42 85.6199 78.42 89.0999V111.6H85.86V97.6199C85.86 89.3999 89.7 87.1799 95.94 87.2399V80.0399C90.72 80.0999 87.3 82.7399 85.86 86.4599Z" fill="#357A6D"/>
<path d="M128.1 67.7399H120.66V83.3399C119.88 81.8399 117.48 80.0399 112.74 80.0399C104.04 80.0399 98.76 86.9399 98.76 96.4799C98.76 106.02 103.74 112.32 111.54 112.32C116.34 112.32 119.16 110.7 120.66 108C120.66 108.84 120.84 110.7 120.96 111.6H128.16C128.1 108.72 128.1 105.9 128.1 103.02V67.7399ZM113.64 106.26C109.2 106.26 106.44 102.72 106.44 96.2399C106.44 89.7599 109.08 86.0999 113.88 86.0999C119.94 86.0999 120.9 90.1799 120.9 95.9999C120.9 101.22 119.94 106.26 113.64 106.26Z" fill="#357A6D"/>
<path d="M148.8 80.0399C139.08 80.0399 134.22 87.0599 134.22 96.5999C134.22 104.64 138.48 112.32 148.44 112.32C157.74 112.32 161.1 106.44 162.24 102.6H154.74C153.9 104.58 152.64 106.38 148.68 106.38C144.06 106.38 141.72 102.36 141.72 97.7399H162.54C162.66 96.8399 162.66 96.1199 162.66 95.0999C162.66 87.7799 159.18 80.0399 148.8 80.0399ZM141.9 92.9999C142.32 88.6199 144.18 85.4999 148.74 85.4999C153.3 85.4999 155.1 88.8599 155.16 92.9999H141.9Z" fill="#357A6D"/>
<path d="M185.64 80.0399C180.06 80.0399 177.54 82.9199 176.46 85.0799C176.46 84.1199 176.34 81.5999 176.16 80.7599H168.96C169.02 83.0999 169.02 85.8599 169.02 88.4999V111.6H176.46V94.6799C176.46 88.9799 178.62 86.1599 183 86.1599C187.08 86.1599 188.46 88.9199 188.46 92.7599V111.6H195.9V91.9199C195.9 83.9999 191.7 80.0399 185.64 80.0399Z" fill="#357A6D"/>
<path d="M227.67 75.7199C233.97 75.7199 236.55 79.0199 237.63 82.4399H245.37C244.29 75.2399 238.11 69.4799 227.79 69.4799C214.89 69.4799 207.81 78.8999 207.81 91.3199C207.81 103.74 214.41 112.26 226.41 112.26C232.77 112.26 236.67 110.04 238.77 106.98C238.89 108.9 239.13 110.46 239.43 111.6H245.19V88.6799H227.61V95.0999H237.57V95.5199C237.57 100.32 235.83 105.96 227.61 105.96C219.39 105.96 215.85 98.6399 215.85 90.9599C215.85 83.2799 218.79 75.7199 227.67 75.7199Z" fill="#357A6D"/>
<path d="M266.31 80.0399C256.59 80.0399 251.73 87.0599 251.73 96.5999C251.73 104.64 255.99 112.32 265.95 112.32C275.25 112.32 278.61 106.44 279.75 102.6H272.25C271.41 104.58 270.15 106.38 266.19 106.38C261.57 106.38 259.23 102.36 259.23 97.7399H280.05C280.17 96.8399 280.17 96.1199 280.17 95.0999C280.17 87.7799 276.69 80.0399 266.31 80.0399ZM259.41 92.9999C259.83 88.6199 261.69 85.4999 266.25 85.4999C270.81 85.4999 272.61 88.8599 272.67 92.9999H259.41Z" fill="#357A6D"/>
<path d="M303.15 80.0399C297.57 80.0399 295.05 82.9199 293.97 85.0799C293.97 84.1199 293.85 81.5999 293.67 80.7599H286.47C286.53 83.0999 286.53 85.8599 286.53 88.4999V111.6H293.97V94.6799C293.97 88.9799 296.13 86.1599 300.51 86.1599C304.59 86.1599 305.97 88.9199 305.97 92.7599V111.6H313.41V91.9199C313.41 83.9999 309.21 80.0399 303.15 80.0399Z" fill="#357A6D"/>
<path d="M328.95 67.7399H321.51V74.9999H328.95V67.7399Z" fill="#357A6D"/>
<path d="M328.95 80.7599H321.51V111.6H328.95V80.7599Z" fill="#357A6D"/>
<path d="M363.45 80.7599H356.01V97.0799C356.01 103.68 354.21 106.14 349.71 106.14C345.51 106.14 344.43 103.02 344.43 99.4199V80.7599H336.99V100.92C336.99 108.9 341.31 112.32 347.25 112.32C351.45 112.32 354.27 110.88 356.01 107.7C356.07 109.02 356.13 110.76 356.25 111.6H363.51C363.45 109.14 363.45 105.6 363.45 102.6V80.7599Z" fill="#357A6D"/>
<path d="M383.67 92.4599C378.45 91.1999 377.37 90.2999 377.37 88.5599C377.37 86.9399 378.39 85.3799 381.75 85.3799C386.01 85.3799 387.03 87.7799 387.33 89.2199H394.47C394.17 84.9599 390.93 80.0399 382.05 80.0399C373.17 80.0399 370.05 84.6599 370.05 89.1599C370.05 93.4199 371.73 96.4199 381.39 98.7599C386.25 99.9599 387.63 100.92 387.63 103.26C387.63 105.42 386.25 106.8 382.65 106.8C379.05 106.8 376.95 105.24 376.23 102.48H368.91C369.63 107.94 373.47 112.32 382.41 112.32C391.35 112.32 395.25 107.88 395.25 102.72C395.25 98.1599 393.63 94.7399 383.67 92.4599Z" fill="#357A6D"/>
<path d="M197.99 61.6499C211.02 60.9499 223.31 53.4199 229.49 40.8799C236.14 27.3999 233.9 11.8499 225.03 0.889893C225.03 0.889893 223.75 3.86989 214.71 7.85989C205.8 11.7999 176.71 21.2999 194.29 60.0599C216.99 40.9099 219.47 25.2399 219.73 21.3199C219.74 20.9999 219.75 20.6899 219.75 20.3699C219.75 20.3699 219.77 20.6999 219.73 21.3199C219.13 38.2399 206.51 53.4099 198 61.6499H197.99Z" fill="#357A6D"/>
<path d="M256.78 41.1799C256.78 41.1799 255.55 42.2599 250.57 42.1099C245.66 41.9699 230.36 39.9799 229.95 61.4299C243.93 57.7699 248.63 51.4999 249.81 49.5199C245.81 56.9599 236.9 61.0699 231.29 62.9599C237.37 65.4699 244.6 64.7099 250.13 60.3399C256.08 55.6499 258.43 48.0899 256.78 41.1699V41.1799ZM249.93 49.3199C250 49.1799 250.08 49.0399 250.15 48.8899C250.15 48.8899 250.09 49.0399 249.93 49.3199Z" fill="#357A6D"/>
<path d="M178.68 62.8199C173.21 46.3599 165.33 41.2099 162.86 39.9599C172.08 44.1699 177.7 54.5299 180.41 61.0999C182.94 53.6199 181.46 45.0299 175.8 38.7399C169.72 31.9799 160.48 29.7499 152.32 32.2699C152.32 32.2699 153.71 33.6599 153.92 39.6299C154.13 45.5199 152.95 63.9999 178.67 62.8199H178.68ZM162.62 39.8399C162.45 39.7599 162.27 39.6899 162.09 39.6099C162.09 39.6099 162.28 39.6699 162.62 39.8399Z" fill="#357A6D"/>
</g>
<defs>
<clipPath id="clip0_54_606">
<rect width="395.25" height="111.44" fill="white" transform="translate(0 0.879883)"/>
</clipPath>
</defs>
</svg>
