<?xml version="1.0" encoding="UTF-8" standalone="no"?>
<!DOCTYPE svg PUBLIC "-//W3C//DTD SVG 1.1//EN" "http://www.w3.org/Graphics/SVG/1.1/DTD/svg11.dtd">
<svg width="100%" height="100%" viewBox="0 0 149 145" version="1.1" xmlns="http://www.w3.org/2000/svg" xmlns:xlink="http://www.w3.org/1999/xlink" xml:space="preserve" xmlns:serif="http://www.serif.com/" style="fill-rule:evenodd;clip-rule:evenodd;stroke-linecap:round;stroke-linejoin:round;stroke-miterlimit:1.5;">
    <g transform="matrix(1,0,0,1,-68.1229,-66.2007)">
        <g transform="matrix(0.572211,0,0,0.572211,-269.859,-91.1524)">
            <g transform="matrix(0.913459,0,0,0.913459,62.7051,35.0146)">
                <g transform="matrix(1.60568,0,0,2.73103,-336.15,-1276.14)">
                    <rect x="569.318" y="597.498" width="177.229" height="67.263" style="fill:rgb(58,171,123);"/>
                </g>
                <g transform="matrix(1.23381,0,0,1.22041,-162.144,-114.945)">
                    <path d="M803.249,309.451C805.655,309.451 807.962,310.417 809.664,312.137C811.365,313.857 812.321,316.19 812.321,318.623L812.321,521.83L617.629,521.83L617.629,318.623C617.629,316.19 618.585,313.857 620.287,312.137C621.988,310.417 624.296,309.451 626.702,309.451L803.249,309.451Z" style="fill:rgb(237,236,234);"/>
                </g>
                <g transform="matrix(1,0,0,1,186.264,-102.076)">
                    <g transform="matrix(17.8992,0,0,17.8992,-6619.71,-7836.06)">
                        <path d="M391.718,473.624L391.718,463.641L399.652,468.632L391.718,473.624Z" style="fill:rgb(50,192,135);"/>
                    </g>
                    <g transform="matrix(-17.8992,0,0,17.8992,7687.19,-7836.06)">
                        <path d="M391.718,473.624L407.587,473.624L399.652,468.632L391.718,473.624Z" style="fill:rgb(58,171,123);"/>
                    </g>
                    <g transform="matrix(-17.8992,0,0,17.8992,7687.19,-7836.06)">
                        <path d="M391.718,473.624L391.718,463.641L399.652,468.632L391.718,473.624Z" style="fill:rgb(50,192,135);"/>
                    </g>
                </g>
                <g transform="matrix(0.916004,0,0,0.916004,280.241,199.743)">
                    <path d="M435.682,161.107L466.938,192.362L524.486,134.814" style="fill:none;stroke:rgb(58,171,123);stroke-width:13.1px;"/>
                </g>
            </g>
        </g>
    </g>
</svg>
