<svg width="32" height="32" viewBox="0 0 32 32" fill="none" xmlns="http://www.w3.org/2000/svg">
<path d="M28.4843 31.1393L17.7687 20.4218C13.0018 23.8108 6.43325 22.9818 2.65782 18.5148C-1.11762 14.0478 -0.840398 7.43291 3.29555 3.29743C7.43042 -0.839856 14.0459 -1.11828 18.5138 2.65696C22.9817 6.4322 23.8111 13.0014 20.4218 17.7687L31.1374 28.4862L28.4862 31.1374L28.4843 31.1393ZM11.2493 3.75115C7.69375 3.75036 4.62622 6.2462 3.90394 9.72762C3.18166 13.209 5.00314 16.7192 8.26557 18.1329C11.528 19.5466 15.3347 18.4752 17.381 15.5675C19.4273 12.6598 19.1507 8.7149 16.7187 6.12118L17.8531 7.24618L16.5743 5.97118L16.5518 5.94868C15.1489 4.53714 13.2394 3.74579 11.2493 3.75115Z" fill="#2E3A59"/>
</svg>
