<?xml version="1.0" encoding="UTF-8" standalone="no"?>
<!DOCTYPE svg PUBLIC "-//W3C//DTD SVG 1.1//EN" "http://www.w3.org/Graphics/SVG/1.1/DTD/svg11.dtd">
<svg width="100%" height="100%" viewBox="0 0 32 32" version="1.1" xmlns="http://www.w3.org/2000/svg" xmlns:xlink="http://www.w3.org/1999/xlink" xml:space="preserve" xmlns:serif="http://www.serif.com/" style="fill-rule:evenodd;clip-rule:evenodd;stroke-linejoin:round;stroke-miterlimit:2;">
    <path d="M28.484,31.139L17.769,20.422C13.002,23.811 6.433,22.982 2.658,18.515C-1.118,14.048 -0.84,7.433 3.296,3.297C7.43,-0.84 14.046,-1.118 18.514,2.657C22.982,6.432 23.811,13.001 20.422,17.769L31.137,28.486L28.484,31.139ZM11.249,3.751C7.694,3.75 4.626,6.246 3.904,9.728C3.182,13.209 5.003,16.719 8.266,18.133C11.528,19.547 15.335,18.475 17.381,15.568C19.427,12.66 19.151,8.715 16.719,6.121L17.853,7.246L16.574,5.971L16.552,5.949C15.149,4.537 13.239,3.746 11.249,3.751Z" style="fill:white;fill-rule:nonzero;"/>
</svg>
