<svg width="19" height="18" viewBox="0 0 19 18" fill="none" xmlns="http://www.w3.org/2000/svg">
<g clip-path="url(#clip0_45_437)">
<path d="M17.9178 7.68594C17.8629 7.31244 17.5169 7.05545 17.1399 7.11027C16.7664 7.1651 16.506 7.51461 16.5643 7.88811C17.0577 11.2325 15.2519 14.5495 12.1713 15.9509C9.32725 17.2462 5.96917 16.65 3.73844 14.522L4.70475 14.0834L1.79213 12.4455L1.11023 15.7179L2.40892 15.1285C4.13936 16.9961 6.56882 18.0001 9.02913 18.0001C10.2833 18.0001 11.5511 17.7396 12.7367 17.1982C16.3724 15.5466 18.5037 11.6334 17.9178 7.68594Z" fill="#284627"/>
<path d="M1.45288 10.1153C0.959451 6.76751 2.76528 3.45055 5.8458 2.04906C8.74129 0.729817 12.1748 1.37745 14.4021 3.60132L13.3809 4.06734L16.2935 5.70526L16.9754 2.43284L15.7213 3.00166C13.1205 0.0821872 8.85437 -0.822439 5.27698 0.801776C1.64477 2.45683 -0.48658 6.3666 0.0959441 10.3141C0.147343 10.6533 0.442032 10.9 0.774414 10.9C0.80868 10.9 0.842946 10.8966 0.877212 10.8932C1.25071 10.8383 1.50771 10.4888 1.45288 10.1153Z" fill="#284627"/>
<path d="M9.00516 14.6111C9.34439 14.6111 9.62195 14.3335 9.62195 13.9943V12.514C10.3244 12.3427 11.4381 11.7876 12.1542 10.0331C13.2336 7.3775 9.50201 3.85152 9.34096 3.70075L9.00516 3.3855L8.66935 3.70075C8.5083 3.84809 4.77671 7.3775 5.8561 10.0331C6.57226 11.791 7.68591 12.3427 8.38836 12.514V13.9943C8.38836 14.3335 8.66592 14.6111 9.00516 14.6111ZM6.771 9.65963C6.15764 8.15192 7.94633 5.85266 9.00516 4.75272C10.0674 5.85266 11.8527 8.15192 11.2393 9.65963C10.763 10.835 10.0948 11.2975 9.62195 11.4826V9.15592C9.62195 8.81668 9.34439 8.53912 9.00516 8.53912C8.66592 8.53912 8.38836 8.81668 8.38836 9.15592V11.4826C7.91549 11.301 7.25073 10.8384 6.771 9.65963Z" fill="#284627"/>
</g>
<defs>
<clipPath id="clip0_45_437">
<rect width="18.0137" height="18" fill="white"/>
</clipPath>
</defs>
</svg>
