<?xml version="1.0" encoding="UTF-8"?>
<svg id="Layer_1" data-name="Layer 1" xmlns="http://www.w3.org/2000/svg" version="1.1" viewBox="0 0 150 150">
  <defs>
    <style>
      .cls-1 {
        fill: #284627;
      }

      .cls-1, .cls-2 {
        stroke-width: 0px;
      }

      .cls-2 {
        fill: #fff;
      }
    </style>
  </defs>
  <path class="cls-2" d="M127.3,16.8l-3.2,55.4c2.8,1.9,7.5,4.5,12.3,4.1,2.9-.3,5.4-1.6,7.5-4,.3-.3.7-.5,1.1-.5s.6,0,.9.3c.6.5.7,1.5.2,2.1-1.9,2.1-4.1,3.5-6.5,4.3-.9.3-1.9.5-2.9.6-4.9.4-9.5-1.7-12.7-3.6l-1.8,31.7c-.1,2.5-2,4.5-4.4,4.9-7.6,1.3-15.2,2.2-23,2.8v25.2c0,1.2-1,2.2-2.2,2.2s-2.2-1-2.2-2.2v-24.9c-4.9.3-9.9.4-14.8.4s-9.9-.1-14.8-.4v24.9c0,1.2-1,2.2-2.2,2.2s-2.2-1-2.2-2.2v-25.2c-7.8-.6-15.4-1.5-23-2.8-2.4-.4-4.3-2.4-4.4-4.9l-1.8-31.7c-3.2,2-7.9,4.1-12.7,3.6-1,0-2-.3-2.9-.6-2.4-.8-4.6-2.2-6.5-4.3-.5-.6-.5-1.6.2-2.1.3-.2.6-.3.9-.3s.8.2,1.1.5c2.2,2.4,4.7,3.7,7.5,4,4.8.4,9.5-2.2,12.3-4.1l-3.2-55.4h103.7Z"/>
  <g>
    <g>
      <path class="cls-1" d="M60.9,63c-1.6,0-2.8,1.5-2.8,3.2s1.3,3.2,2.8,3.2,2.8-1.5,2.8-3.2-1.3-3.2-2.8-3.2ZM59.7,68.7c-.3,0-.6-.3-.6-.6s.3-.6.6-.6.6.3.6.6-.3.6-.6.6ZM61.5,66.3c-.7,0-1.2-.5-1.2-1.2s.5-1.2,1.2-1.2,1.2.5,1.2,1.2-.5,1.2-1.2,1.2Z"/>
      <path class="cls-1" d="M56.6,58.6c1.6-.9,3.3-1.4,4.8-1.5-1.7-.5-3.6-.4-5.4.6s-2.9,2.4-3.5,4.1c1-1.2,2.4-2.3,4-3.2Z"/>
    </g>
    <g>
      <path class="cls-1" d="M87.2,66.3c0,1.8,1.3,3.2,2.8,3.2s2.8-1.5,2.8-3.2-1.3-3.2-2.8-3.2-2.8,1.5-2.8,3.2ZM90.6,68.1c0-.3.3-.6.6-.6s.6.3.6.6-.3.6-.6.6-.6-.3-.6-.6ZM88.1,65c0-.7.5-1.2,1.2-1.2s1.2.5,1.2,1.2-.5,1.2-1.2,1.2-1.2-.5-1.2-1.2Z"/>
      <path class="cls-1" d="M94.3,58.6c-1.6-.9-3.3-1.4-4.8-1.5,1.7-.5,3.6-.4,5.4.6s2.9,2.4,3.5,4.1c-1-1.2-2.4-2.3-4-3.2Z"/>
    </g>
    <path class="cls-1" d="M80.8,82.3h-10.2c-1.4,0-2.2,1.5-1.6,2.7,1.3,2.3,3.8,3.9,6.6,3.9s5.3-1.6,6.6-3.9c.7-1.2-.2-2.7-1.6-2.7ZM78.1,86.5c-.7.4-1.6.6-2.4.6s-1.7-.2-2.4-.6c-.3-.1-.4-.5-.3-.7.5-1,1.5-1.7,2.7-1.7s2.2.7,2.7,1.7c.1.3,0,.6-.3.7Z"/>
  </g>
  <ellipse class="cls-1" cx="75.4" cy="16.8" rx="51.9" ry="8.3"/>
</svg>