<svg width="396" height="112" viewBox="0 0 396 112" fill="none" xmlns="http://www.w3.org/2000/svg">
<g clip-path="url(#clip0_41_532)">
<path d="M19.86 74.84C26.16 74.84 28.74 78.14 29.82 81.56H37.56C36.48 74.36 30.3 68.6 19.98 68.6C7.08 68.6 0 78.02 0 90.44C0 102.86 6.6 111.38 18.6 111.38C24.96 111.38 28.86 109.16 30.96 106.1C31.08 108.02 31.32 109.58 31.62 110.72H37.38V87.8H19.8V94.22H29.76V94.64C29.76 99.44 28.02 105.08 19.8 105.08C11.58 105.08 8.04 97.76 8.04 90.08C8.04 82.4 10.98 74.84 19.86 74.84Z" fill="#284627"/>
<path d="M70.2 89.6C70.2 82.4 65.82 79.22 57.78 79.16C48.6 79.1 45.42 83.72 45 88.76H52.14C52.56 86.48 53.4 84.62 57.48 84.62C62.1 84.62 62.88 87.14 62.88 89.54V91.64H58.2C49.14 91.64 43.56 94.88 43.56 101.84C43.56 106.58 46.68 111.44 54.06 111.44C59.7 111.44 61.92 109.22 63 107.36C63.06 108.5 63.24 110.06 63.48 110.72H70.62C70.44 109.94 70.2 106.04 70.2 103.16V89.6ZM62.94 97.22C62.94 101.78 62.16 105.98 56.04 105.98C52.74 105.98 51.06 103.94 51.06 101.42C51.06 97.94 53.46 96.32 58.92 96.32H62.94V97.22Z" fill="#284627"/>
<path d="M85.86 85.58C85.86 83.48 85.8 80.6 85.68 79.88H78.36C78.42 82.16 78.42 84.74 78.42 88.22V110.72H85.86V96.74C85.86 88.52 89.7 86.3 95.94 86.36V79.16C90.72 79.22 87.3 81.86 85.86 85.58Z" fill="#284627"/>
<path d="M128.1 66.86H120.66V82.46C119.88 80.96 117.48 79.16 112.74 79.16C104.04 79.16 98.76 86.06 98.76 95.6C98.76 105.14 103.74 111.44 111.54 111.44C116.34 111.44 119.16 109.82 120.66 107.12C120.66 107.96 120.84 109.82 120.96 110.72H128.16C128.1 107.84 128.1 105.02 128.1 102.14V66.86ZM113.64 105.38C109.2 105.38 106.44 101.84 106.44 95.36C106.44 88.88 109.08 85.22 113.88 85.22C119.94 85.22 120.9 89.3 120.9 95.12C120.9 100.34 119.94 105.38 113.64 105.38Z" fill="#284627"/>
<path d="M148.8 79.16C139.08 79.16 134.22 86.18 134.22 95.72C134.22 103.76 138.48 111.44 148.44 111.44C157.74 111.44 161.1 105.56 162.24 101.72H154.74C153.9 103.7 152.64 105.5 148.68 105.5C144.06 105.5 141.72 101.48 141.72 96.86H162.54C162.66 95.96 162.66 95.24 162.66 94.22C162.66 86.9 159.18 79.16 148.8 79.16ZM141.9 92.12C142.32 87.74 144.18 84.62 148.74 84.62C153.3 84.62 155.1 87.98 155.16 92.12H141.9Z" fill="#284627"/>
<path d="M185.64 79.16C180.06 79.16 177.54 82.04 176.46 84.2C176.46 83.24 176.34 80.72 176.16 79.88H168.96C169.02 82.22 169.02 84.98 169.02 87.62V110.72H176.46V93.8C176.46 88.1 178.62 85.28 183 85.28C187.08 85.28 188.46 88.04 188.46 91.88V110.72H195.9V91.04C195.9 83.12 191.7 79.16 185.64 79.16Z" fill="#284627"/>
<path d="M227.67 74.84C233.97 74.84 236.55 78.14 237.63 81.56H245.37C244.29 74.36 238.11 68.6 227.79 68.6C214.89 68.6 207.81 78.02 207.81 90.44C207.81 102.86 214.41 111.38 226.41 111.38C232.77 111.38 236.67 109.16 238.77 106.1C238.89 108.02 239.13 109.58 239.43 110.72H245.19V87.8H227.61V94.22H237.57V94.64C237.57 99.44 235.83 105.08 227.61 105.08C219.39 105.08 215.85 97.76 215.85 90.08C215.85 82.4 218.79 74.84 227.67 74.84Z" fill="#284627"/>
<path d="M266.31 79.16C256.59 79.16 251.73 86.18 251.73 95.72C251.73 103.76 255.99 111.44 265.95 111.44C275.25 111.44 278.61 105.56 279.75 101.72H272.25C271.41 103.7 270.15 105.5 266.19 105.5C261.57 105.5 259.23 101.48 259.23 96.86H280.05C280.17 95.96 280.17 95.24 280.17 94.22C280.17 86.9 276.69 79.16 266.31 79.16ZM259.41 92.12C259.83 87.74 261.69 84.62 266.25 84.62C270.81 84.62 272.61 87.98 272.67 92.12H259.41Z" fill="#284627"/>
<path d="M303.15 79.16C297.57 79.16 295.05 82.04 293.97 84.2C293.97 83.24 293.85 80.72 293.67 79.88H286.47C286.53 82.22 286.53 84.98 286.53 87.62V110.72H293.97V93.8C293.97 88.1 296.13 85.28 300.51 85.28C304.59 85.28 305.97 88.04 305.97 91.88V110.72H313.41V91.04C313.41 83.12 309.21 79.16 303.15 79.16Z" fill="#284627"/>
<path d="M328.95 66.86H321.51V74.12H328.95V66.86Z" fill="#284627"/>
<path d="M328.95 79.88H321.51V110.72H328.95V79.88Z" fill="#284627"/>
<path d="M363.45 79.88H356.01V96.2C356.01 102.8 354.21 105.26 349.71 105.26C345.51 105.26 344.43 102.14 344.43 98.54V79.88H336.99V100.04C336.99 108.02 341.31 111.44 347.25 111.44C351.45 111.44 354.27 110 356.01 106.82C356.07 108.14 356.13 109.88 356.25 110.72H363.51C363.45 108.26 363.45 104.72 363.45 101.72V79.88Z" fill="#284627"/>
<path d="M383.67 91.58C378.45 90.32 377.37 89.42 377.37 87.68C377.37 86.06 378.39 84.5 381.75 84.5C386.01 84.5 387.03 86.9 387.33 88.34H394.47C394.17 84.08 390.93 79.16 382.05 79.16C373.17 79.16 370.05 83.78 370.05 88.28C370.05 92.54 371.73 95.54 381.39 97.88C386.25 99.08 387.63 100.04 387.63 102.38C387.63 104.54 386.25 105.92 382.65 105.92C379.05 105.92 376.95 104.36 376.23 101.6H368.91C369.63 107.06 373.47 111.44 382.41 111.44C391.35 111.44 395.25 107 395.25 101.84C395.25 97.28 393.63 93.86 383.67 91.58Z" fill="#284627"/>
<path d="M197.99 60.77C211.02 60.07 223.31 52.54 229.49 40C236.14 26.52 233.9 10.97 225.03 0.0100098C225.03 0.0100098 223.75 2.99001 214.71 6.98001C205.8 10.92 176.71 20.42 194.29 59.18C216.99 40.03 219.47 24.36 219.73 20.44C219.74 20.12 219.75 19.81 219.75 19.49C219.75 19.49 219.77 19.82 219.73 20.44C219.13 37.36 206.51 52.53 198 60.77H197.99Z" fill="#284627"/>
<path d="M256.78 40.3C256.78 40.3 255.55 41.38 250.57 41.23C245.66 41.09 230.36 39.1 229.95 60.55C243.93 56.89 248.63 50.62 249.81 48.64C245.81 56.08 236.9 60.19 231.29 62.08C237.37 64.59 244.6 63.83 250.13 59.46C256.08 54.77 258.43 47.21 256.78 40.29V40.3ZM249.93 48.44C250 48.3 250.08 48.16 250.15 48.01C250.15 48.01 250.09 48.16 249.93 48.44Z" fill="#284627"/>
<path d="M178.68 61.94C173.21 45.48 165.33 40.33 162.86 39.08C172.08 43.29 177.7 53.65 180.41 60.22C182.94 52.74 181.46 44.15 175.8 37.86C169.72 31.1 160.48 28.87 152.32 31.39C152.32 31.39 153.71 32.78 153.92 38.75C154.13 44.64 152.95 63.12 178.67 61.94H178.68ZM162.62 38.96C162.45 38.88 162.27 38.81 162.09 38.73C162.09 38.73 162.28 38.79 162.62 38.96Z" fill="#284627"/>
</g>
<defs>
<clipPath id="clip0_41_532">
<rect width="395.25" height="111.44" fill="white"/>
</clipPath>
</defs>
</svg>
