<?xml version="1.0" encoding="UTF-8" standalone="no"?>
<!DOCTYPE svg PUBLIC "-//W3C//DTD SVG 1.1//EN" "http://www.w3.org/Graphics/SVG/1.1/DTD/svg11.dtd">
<svg width="100%" height="100%" viewBox="0 0 285 310" version="1.1" xmlns="http://www.w3.org/2000/svg" xmlns:xlink="http://www.w3.org/1999/xlink" xml:space="preserve" xmlns:serif="http://www.serif.com/" style="fill-rule:evenodd;clip-rule:evenodd;stroke-linejoin:round;stroke-miterlimit:2;">
    <g transform="matrix(1,0,0,1,-565.089,-245.677)">
        <g transform="matrix(-0.709638,0.709638,-0.709638,-0.709638,1304.32,227.701)">
            <path d="M624.198,417.503L541.936,499.764C538.96,502.741 534.634,503.925 530.557,502.879C526.48,501.833 523.258,498.713 522.081,494.672L439.425,210.733C438.211,206.56 439.366,202.056 442.439,198.983C445.512,195.91 450.015,194.755 454.188,195.97L738.128,278.625C742.169,279.802 745.289,283.024 746.335,287.101C747.38,291.178 746.196,295.504 743.22,298.481L660.959,380.742L574.421,323.207C572.202,321.732 569.25,322.026 567.366,323.91C565.482,325.794 565.188,328.746 566.663,330.965L624.198,417.503Z" style="fill:white;"/>
        </g>
    </g>
</svg>
