<svg width="229" height="229" viewBox="0 0 229 229" fill="none" xmlns="http://www.w3.org/2000/svg">
<circle cx="114.5" cy="114.5" r="114.5" fill="white"/>
<g clip-path="url(#clip0_119_934)">
<path d="M114.5 5C54.1209 5 5 54.1209 5 114.5C5 141.656 14.9393 166.534 31.3769 185.694C31.6406 185.993 31.9044 186.305 32.1682 186.605C52.2626 209.517 81.7207 224 114.5 224C147.279 224 174.687 210.5 194.698 188.967C195.105 188.535 195.501 188.103 195.897 187.66C213.365 168.261 224 142.603 224 114.5C224 54.1209 174.879 5 114.5 5ZM194.698 187.204C174.867 209.061 146.26 222.801 114.5 222.801C82.7398 222.801 52.886 208.45 33.0314 185.766C35.3214 183.667 40.9924 179.651 53.2097 176.414C57.478 175.275 61.3026 174.34 64.6717 173.524C75.4502 170.899 81.9485 169.304 85.3296 165.395C88.8785 161.283 89.8736 154.521 90.1254 151.883C98.8177 157.89 106.851 160.564 116.047 160.564C116.706 160.564 117.365 160.54 118.025 160.516C127.269 160.144 133.983 154.473 136.357 152.147C136.657 154.929 137.688 161.415 141.129 165.395C144.51 169.304 151.02 170.899 161.799 173.524C165.168 174.34 168.98 175.275 173.248 176.414C189.159 180.634 193.99 186.173 194.698 187.084V187.204ZM72.9804 94.8133C73.6518 92.4393 82.9077 80.8215 86.5165 80.3659C86.5165 80.3659 87.7634 78.7833 87.1999 80.8215C86.6244 82.8478 82.3442 90.521 86.1808 91.7679C90.0175 93.0028 101.527 81.9485 102.546 82.6199C103.554 83.3033 100.628 90.0654 102.546 90.521C104.465 90.9766 124.883 84.4304 137.076 57.454C137.076 57.454 139.666 56.4469 141.692 58.2453C143.73 60.0557 152.303 62.6455 153.885 81.2651C155.468 99.8848 151.284 122.005 151.284 122.005C151.284 122.005 152.986 122.461 153.55 119.751C154.113 117.042 157.602 102.822 161.667 95.3768L161.954 94.4056C162.242 94.4416 162.734 94.5855 163.177 95.101C164.077 96.1201 165.252 99.1295 162.985 107.858C159.257 122.197 151.739 123.324 151.667 123.324L151.212 123.384L151.152 123.84C148.514 143.359 136.669 150.193 136.549 150.253L136.225 150.433V150.552C135.146 151.727 128.024 158.921 117.977 159.317C108.014 159.712 99.5371 157.039 90.2333 150.48V150.433L89.9096 150.253H89.8976C89.1182 149.689 88.3269 149.114 87.5356 148.502C83.9028 145.397 77.2127 137.927 75.3184 123.84L75.2464 123.384L74.7908 123.324C74.7189 123.324 67.2135 122.197 63.4847 107.858C61.2307 99.1774 62.3697 96.1561 63.2569 95.125C63.9523 94.3217 64.7436 94.3936 64.7676 94.3936L65.0553 94.4296L65.1752 94.3097C67.6691 99.9448 73.1123 112.486 73.5439 115.351L74.3352 120.543L75.1145 120.195C75.1145 120.195 72.297 97.1752 72.9804 94.8133ZM195.561 186.233C194.47 184.854 189.338 179.447 173.56 175.251C169.28 174.112 165.455 173.177 162.074 172.361C151.536 169.784 145.169 168.237 142.04 164.604C138.407 160.396 137.604 152.83 137.472 151.104C139.486 149.845 149.677 142.651 152.279 124.427C154.101 123.984 160.684 121.466 164.136 108.158C165.983 101.096 165.959 96.4318 164.077 94.2977C163.465 93.6143 162.794 93.3505 162.29 93.2426L162.686 91.8758L163.141 89.9575L164.268 86.9122C164.268 86.9122 166.75 75.6301 163.813 72.1291L164.604 70.3187C164.604 70.3187 168.105 54.4087 155.468 48.2101L154.785 47.7545C154.785 47.7545 155.684 45.2727 153.993 44.3735C152.303 43.4623 143.047 39.182 141.476 36.916C139.894 34.662 131.093 20.8981 104.345 31.5088L103.781 31.7366C103.781 31.7366 103.11 30.0341 99.2733 29.8182C95.4367 29.5904 93.5184 26.653 76.6971 41.1004C76.6971 41.1004 71.3978 46.1719 69.2517 47.6466C69.2517 47.6466 57.2862 54.3008 62.4776 63.7725L62.8253 64.9115C62.8253 64.9115 59.5522 67.1655 59.5522 70.8822C59.5522 74.599 59.0966 81.8286 63.9523 91.5401C63.9523 91.5401 64.2161 92.1396 64.6597 93.1347L64.6117 93.1947C64.1322 93.2187 63.197 93.3865 62.3817 94.2977C60.5113 96.4318 60.4874 101.096 62.3217 108.158C65.7747 121.466 72.3689 123.984 74.1913 124.427C76.1816 138.383 82.608 145.853 86.4206 149.162C87.5836 150.169 88.5188 150.804 88.9984 151.104C88.8545 152.83 88.0632 160.396 84.4184 164.604C81.2891 168.237 74.9227 169.784 64.3839 172.361C61.0149 173.177 57.1902 174.112 52.898 175.251C40.5009 178.548 34.686 182.588 32.2281 184.842C16.0063 165.911 6.19895 141.332 6.19895 114.5C6.19895 54.7804 54.7804 6.19895 114.5 6.19895C174.22 6.19895 222.801 54.7804 222.801 114.5C222.801 141.992 212.502 167.122 195.561 186.233Z" fill="#7A7A7A"/>
</g>
<defs>
<clipPath id="clip0_119_934">
<rect width="219" height="219" fill="white" transform="translate(5 5)"/>
</clipPath>
</defs>
</svg>
