<svg width="396" height="112" viewBox="0 0 396 112" fill="none" xmlns="http://www.w3.org/2000/svg">
<g clip-path="url(#clip0_52_820)">
<path d="M19.86 75.2799C26.16 75.2799 28.74 78.5799 29.82 81.9999H37.56C36.48 74.7999 30.3 69.0399 19.98 69.0399C7.08 69.0399 0 78.4599 0 90.8799C0 103.3 6.6 111.82 18.6 111.82C24.96 111.82 28.86 109.6 30.96 106.54C31.08 108.46 31.32 110.02 31.62 111.16H37.38V88.2399H19.8V94.6599H29.76V95.0799C29.76 99.8799 28.02 105.52 19.8 105.52C11.58 105.52 8.04 98.1999 8.04 90.5199C8.04 82.8399 10.98 75.2799 19.86 75.2799Z" fill="white"/>
<path d="M70.2 90.0399C70.2 82.8399 65.82 79.6599 57.78 79.5999C48.6 79.5399 45.42 84.1599 45 89.1999H52.14C52.56 86.9199 53.4 85.0599 57.48 85.0599C62.1 85.0599 62.88 87.5799 62.88 89.9799V92.0799H58.2C49.14 92.0799 43.56 95.3199 43.56 102.28C43.56 107.02 46.68 111.88 54.06 111.88C59.7 111.88 61.92 109.66 63 107.8C63.06 108.94 63.24 110.5 63.48 111.16H70.62C70.44 110.38 70.2 106.48 70.2 103.6V90.0399ZM62.94 97.6599C62.94 102.22 62.16 106.42 56.04 106.42C52.74 106.42 51.06 104.38 51.06 101.86C51.06 98.3799 53.46 96.7599 58.92 96.7599H62.94V97.6599Z" fill="white"/>
<path d="M85.86 86.02C85.86 83.92 85.8 81.04 85.68 80.32H78.36C78.42 82.6 78.42 85.18 78.42 88.66V111.16H85.86V97.18C85.86 88.96 89.7 86.74 95.94 86.8V79.6C90.72 79.66 87.3 82.3 85.86 86.02Z" fill="white"/>
<path d="M128.1 67.2999H120.66V82.8999C119.88 81.3999 117.48 79.5999 112.74 79.5999C104.04 79.5999 98.76 86.4999 98.76 96.0399C98.76 105.58 103.74 111.88 111.54 111.88C116.34 111.88 119.16 110.26 120.66 107.56C120.66 108.4 120.84 110.26 120.96 111.16H128.16C128.1 108.28 128.1 105.46 128.1 102.58V67.2999ZM113.64 105.82C109.2 105.82 106.44 102.28 106.44 95.7999C106.44 89.3199 109.08 85.6599 113.88 85.6599C119.94 85.6599 120.9 89.7399 120.9 95.5599C120.9 100.78 119.94 105.82 113.64 105.82Z" fill="white"/>
<path d="M148.8 79.6C139.08 79.6 134.22 86.62 134.22 96.16C134.22 104.2 138.48 111.88 148.44 111.88C157.74 111.88 161.1 106 162.24 102.16H154.74C153.9 104.14 152.64 105.94 148.68 105.94C144.06 105.94 141.72 101.92 141.72 97.3H162.54C162.66 96.4 162.66 95.68 162.66 94.66C162.66 87.34 159.18 79.6 148.8 79.6ZM141.9 92.56C142.32 88.18 144.18 85.06 148.74 85.06C153.3 85.06 155.1 88.42 155.16 92.56H141.9Z" fill="white"/>
<path d="M185.64 79.6C180.06 79.6 177.54 82.48 176.46 84.64C176.46 83.68 176.34 81.16 176.16 80.32H168.96C169.02 82.66 169.02 85.42 169.02 88.06V111.16H176.46V94.24C176.46 88.54 178.62 85.72 183 85.72C187.08 85.72 188.46 88.48 188.46 92.32V111.16H195.9V91.48C195.9 83.56 191.7 79.6 185.64 79.6Z" fill="white"/>
<path d="M227.67 75.2799C233.97 75.2799 236.55 78.5799 237.63 81.9999H245.37C244.29 74.7999 238.11 69.0399 227.79 69.0399C214.89 69.0399 207.81 78.4599 207.81 90.8799C207.81 103.3 214.41 111.82 226.41 111.82C232.77 111.82 236.67 109.6 238.77 106.54C238.89 108.46 239.13 110.02 239.43 111.16H245.19V88.2399H227.61V94.6599H237.57V95.0799C237.57 99.8799 235.83 105.52 227.61 105.52C219.39 105.52 215.85 98.1999 215.85 90.5199C215.85 82.8399 218.79 75.2799 227.67 75.2799Z" fill="white"/>
<path d="M266.31 79.6C256.59 79.6 251.73 86.62 251.73 96.16C251.73 104.2 255.99 111.88 265.95 111.88C275.25 111.88 278.61 106 279.75 102.16H272.25C271.41 104.14 270.15 105.94 266.19 105.94C261.57 105.94 259.23 101.92 259.23 97.3H280.05C280.17 96.4 280.17 95.68 280.17 94.66C280.17 87.34 276.69 79.6 266.31 79.6ZM259.41 92.56C259.83 88.18 261.69 85.06 266.25 85.06C270.81 85.06 272.61 88.42 272.67 92.56H259.41Z" fill="white"/>
<path d="M303.15 79.6C297.57 79.6 295.05 82.48 293.97 84.64C293.97 83.68 293.85 81.16 293.67 80.32H286.47C286.53 82.66 286.53 85.42 286.53 88.06V111.16H293.97V94.24C293.97 88.54 296.13 85.72 300.51 85.72C304.59 85.72 305.97 88.48 305.97 92.32V111.16H313.41V91.48C313.41 83.56 309.21 79.6 303.15 79.6Z" fill="white"/>
<path d="M328.95 67.2999H321.51V74.5599H328.95V67.2999Z" fill="white"/>
<path d="M328.95 80.3199H321.51V111.16H328.95V80.3199Z" fill="white"/>
<path d="M363.45 80.3199H356.01V96.6399C356.01 103.24 354.21 105.7 349.71 105.7C345.51 105.7 344.43 102.58 344.43 98.9799V80.3199H336.99V100.48C336.99 108.46 341.31 111.88 347.25 111.88C351.45 111.88 354.27 110.44 356.01 107.26C356.07 108.58 356.13 110.32 356.25 111.16H363.51C363.45 108.7 363.45 105.16 363.45 102.16V80.3199Z" fill="white"/>
<path d="M383.67 92.02C378.45 90.76 377.37 89.86 377.37 88.12C377.37 86.5 378.39 84.94 381.75 84.94C386.01 84.94 387.03 87.34 387.33 88.78H394.47C394.17 84.52 390.93 79.6 382.05 79.6C373.17 79.6 370.05 84.22 370.05 88.72C370.05 92.98 371.73 95.98 381.39 98.32C386.25 99.52 387.63 100.48 387.63 102.82C387.63 104.98 386.25 106.36 382.65 106.36C379.05 106.36 376.95 104.8 376.23 102.04H368.91C369.63 107.5 373.47 111.88 382.41 111.88C391.35 111.88 395.25 107.44 395.25 102.28C395.25 97.72 393.63 94.3 383.67 92.02Z" fill="white"/>
<path d="M197.99 61.21C211.02 60.51 223.31 52.98 229.49 40.44C236.14 26.96 233.9 11.41 225.03 0.449951C225.03 0.449951 223.75 3.42995 214.71 7.41995C205.8 11.36 176.71 20.86 194.29 59.62C216.99 40.47 219.47 24.8 219.73 20.88C219.74 20.56 219.75 20.25 219.75 19.93C219.75 19.93 219.77 20.26 219.73 20.88C219.13 37.7999 206.51 52.97 198 61.21H197.99Z" fill="white"/>
<path d="M256.78 40.74C256.78 40.74 255.55 41.82 250.57 41.67C245.66 41.53 230.36 39.54 229.95 60.99C243.93 57.33 248.63 51.06 249.81 49.08C245.81 56.52 236.9 60.63 231.29 62.52C237.37 65.03 244.6 64.27 250.13 59.9C256.08 55.21 258.43 47.65 256.78 40.73V40.74ZM249.93 48.88C250 48.74 250.08 48.6 250.15 48.45C250.15 48.45 250.09 48.6 249.93 48.88Z" fill="white"/>
<path d="M178.68 62.38C173.21 45.92 165.33 40.77 162.86 39.52C172.08 43.73 177.7 54.09 180.41 60.66C182.94 53.18 181.46 44.59 175.8 38.3C169.72 31.54 160.48 29.31 152.32 31.83C152.32 31.83 153.71 33.22 153.92 39.19C154.13 45.08 152.95 63.56 178.67 62.38H178.68ZM162.62 39.4C162.45 39.32 162.27 39.25 162.09 39.17C162.09 39.17 162.28 39.23 162.62 39.4Z" fill="white"/>
</g>
<defs>
<clipPath id="clip0_52_820">
<rect width="395.25" height="111.44" fill="white" transform="translate(0 0.439941)"/>
</clipPath>
</defs>
</svg>
